<?xml version="1.0" encoding="utf-8"?> <!-- Generator: IcoMoon.io --> <!DOCTYPE svg PUBLIC "-//W3C//DTD SVG 1.1//EN" "http://www.w3.org/Graphics/SVG/1.1/DTD/svg11.dtd"> <svg width="500.00000000000006" height="500" viewBox="0 0 500 500" xmlns="http://www.w3.org/2000/svg" xmlns:xlink="http://www.w3.org/1999/xlink" fill="#888888"><path d="M 190.30,106.45c-9.175-8.625-21.575-8.625-30.775,0.00L0.00,250.00l 159.525,143.525c 9.20,8.65, 21.60,8.65, 30.775,0.00s 9.175-22.65,0.00-31.30 L 66.45,250.00l 123.875-112.20C 199.475,129.15, 199.475,115.125, 190.30,106.45z M 340.475,106.45c-9.20-8.625-21.575-8.625-30.775,0.00 c-9.175,8.675-8.70,22.675, 0.525,31.325L 433.55,250.00l-123.35,112.225c-9.20,8.65-9.70,22.65-0.525,31.30 c 9.20,8.65, 21.575,8.65, 30.775,0.00L 500.00,250.00L 340.475,106.45z" ></path></svg>